{
    "asset" : {
        "generator" : "Khronos glTF Blender I/O v1.7.33",
        "version" : "2.0"
    },
    "extensionsUsed" : [
        "KHR_materials_transmission"
    ],
    "scene" : 0,
    "scenes" : [
        {
            "name" : "Scene",
            "nodes" : [
                0,
                1,
                2,
                3,
                4
            ]
        }
    ],
    "nodes" : [
        {
            "mesh" : 0,
            "name" : "FinalBaseMesh.003",
            "rotation" : [
                -0.5000000596046448,
                0.4999999701976776,
                -0.5000000596046448,
                -0.4999999701976776
            ],
            "scale" : [
                0.10000000149011612,
                0.10000000149011612,
                0.10000000149011612
            ]
        },
        {
            "mesh" : 1,
            "name" : "Plane",
            "rotation" : [
                0,
                0,
                -0.7071068286895752,
                0.7071068286895752
            ],
            "scale" : [
                0.23465801775455475,
                0.31764933466911316,
                0.31764933466911316
            ],
            "translation" : [
                0.08193500339984894,
                1.4582853317260742,
                -1.035162329673767
            ]
        },
        {
            "mesh" : 2,
            "name" : "Cylinder",
            "rotation" : [
                -0.47138622403144836,
                0,
                0,
                0.8819268941879272
            ],
            "scale" : [
                0.0005583529709838331,
                -0.17254576086997986,
                0.0003693134058266878
            ],
            "translation" : [
                0.08193500339984894,
                1.4326941967010498,
                -0.5761861205101013
            ]
        },
        {
            "mesh" : 3,
            "name" : "Sphere",
            "scale" : [
                0.0167719554156065,
                0.0167719554156065,
                0.0167719554156065
            ],
            "translation" : [
                0.08483049273490906,
                1.3531235456466675,
                -0.4679499864578247
            ]
        },
        {
            "mesh" : 4,
            "name" : "Text",
            "rotation" : [
                -0.5,
                0.5,
                -0.5,
                -0.5
            ],
            "scale" : [
                0.5478157997131348,
                0.5478157997131348,
                0.5478157997131348
            ],
            "translation" : [
                0,
                1.1361231803894043,
                -1.327673077583313
            ]
        }
    ],
    "materials" : [
        {
            "doubleSided" : true,
            "name" : "default.003",
            "pbrMetallicRoughness" : {
                "baseColorFactor" : [
                    0.5356646180152893,
                    0.5356646180152893,
                    0.5356646180152893,
                    1
                ],
                "metallicFactor" : 0,
                "roughnessFactor" : 0.5
            }
        },
        {
            "doubleSided" : true,
            "name" : "Material",
            "pbrMetallicRoughness" : {
                "baseColorTexture" : {
                    "index" : 0
                },
                "metallicFactor" : 0,
                "roughnessFactor" : 0.5
            }
        },
        {
            "doubleSided" : true,
            "extensions" : {
                "KHR_materials_transmission" : {
                    "transmissionFactor" : 0.8666666746139526
                }
            },
            "name" : "Material.001",
            "pbrMetallicRoughness" : {
                "baseColorFactor" : [
                    0.8000000715255737,
                    0.16680268943309784,
                    0.31931668519973755,
                    1
                ],
                "metallicFactor" : 0,
                "roughnessFactor" : 0.5
            }
        }
    ],
    "meshes" : [
        {
            "name" : "FinalBaseMesh.003",
            "primitives" : [
                {
                    "attributes" : {
                        "POSITION" : 0,
                        "NORMAL" : 1
                    },
                    "indices" : 2,
                    "material" : 0
                }
            ]
        },
        {
            "name" : "Plane",
            "primitives" : [
                {
                    "attributes" : {
                        "POSITION" : 3,
                        "NORMAL" : 4,
                        "TEXCOORD_0" : 5
                    },
                    "indices" : 6,
                    "material" : 1
                }
            ]
        },
        {
            "name" : "Cylinder",
            "primitives" : [
                {
                    "attributes" : {
                        "POSITION" : 7,
                        "NORMAL" : 8,
                        "TEXCOORD_0" : 9
                    },
                    "indices" : 10
                }
            ]
        },
        {
            "name" : "Sphere",
            "primitives" : [
                {
                    "attributes" : {
                        "POSITION" : 11,
                        "NORMAL" : 12,
                        "TEXCOORD_0" : 13
                    },
                    "indices" : 14,
                    "material" : 2
                }
            ]
        },
        {
            "name" : "Text",
            "primitives" : [
                {
                    "attributes" : {
                        "POSITION" : 15,
                        "NORMAL" : 16,
                        "TEXCOORD_0" : 17
                    },
                    "indices" : 18
                }
            ]
        }
    ],
    "textures" : [
        {
            "sampler" : 0,
            "source" : 0
        }
    ],
    "images" : [
        {
            "bufferView" : 7,
            "mimeType" : "image/png",
            "name" : "Capture"
        }
    ],
    "accessors" : [
        {
            "bufferView" : 0,
            "componentType" : 5126,
            "count" : 24461,
            "max" : [
                5.84250020980835,
                1.9170000553131104,
                0.05660000070929527
            ],
            "min" : [
                -5.84250020980835,
                -1.8530999422073364,
                -20.684099197387695
            ],
            "type" : "VEC3"
        },
        {
            "bufferView" : 1,
            "componentType" : 5126,
            "count" : 24461,
            "type" : "VEC3"
        },
        {
            "bufferView" : 2,
            "componentType" : 5123,
            "count" : 146754,
            "type" : "SCALAR"
        },
        {
            "bufferView" : 3,
            "componentType" : 5126,
            "count" : 4,
            "max" : [
                1,
                0,
                1
            ],
            "min" : [
                -1,
                0,
                -1
            ],
            "type" : "VEC3"
        },
        {
            "bufferView" : 4,
            "componentType" : 5126,
            "count" : 4,
            "type" : "VEC3"
        },
        {
            "bufferView" : 5,
            "componentType" : 5126,
            "count" : 4,
            "type" : "VEC2"
        },
        {
            "bufferView" : 6,
            "componentType" : 5123,
            "count" : 6,
            "type" : "SCALAR"
        },
        {
            "bufferView" : 8,
            "componentType" : 5126,
            "count" : 192,
            "max" : [
                1,
                1,
                1
            ],
            "min" : [
                -1,
                -1,
                -1
            ],
            "type" : "VEC3"
        },
        {
            "bufferView" : 9,
            "componentType" : 5126,
            "count" : 192,
            "type" : "VEC3"
        },
        {
            "bufferView" : 10,
            "componentType" : 5126,
            "count" : 192,
            "type" : "VEC2"
        },
        {
            "bufferView" : 11,
            "componentType" : 5123,
            "count" : 372,
            "type" : "SCALAR"
        },
        {
            "bufferView" : 12,
            "componentType" : 5126,
            "count" : 559,
            "max" : [
                0.9999997019767761,
                1,
                0.9999994039535522
            ],
            "min" : [
                -0.9999990463256836,
                -1,
                -0.9999987483024597
            ],
            "type" : "VEC3"
        },
        {
            "bufferView" : 13,
            "componentType" : 5126,
            "count" : 559,
            "type" : "VEC3"
        },
        {
            "bufferView" : 14,
            "componentType" : 5126,
            "count" : 559,
            "type" : "VEC2"
        },
        {
            "bufferView" : 15,
            "componentType" : 5123,
            "count" : 2880,
            "type" : "SCALAR"
        },
        {
            "bufferView" : 16,
            "componentType" : 5126,
            "count" : 9621,
            "max" : [
                1.2619000673294067,
                0,
                0.4230000078678131
            ],
            "min" : [
                0.0017000001389533281,
                0,
                -0.06940000504255295
            ],
            "type" : "VEC3"
        },
        {
            "bufferView" : 17,
            "componentType" : 5126,
            "count" : 9621,
            "type" : "VEC3"
        },
        {
            "bufferView" : 18,
            "componentType" : 5126,
            "count" : 9621,
            "type" : "VEC2"
        },
        {
            "bufferView" : 19,
            "componentType" : 5123,
            "count" : 21474,
            "type" : "SCALAR"
        }
    ],
    "bufferViews" : [
        {
            "buffer" : 0,
            "byteLength" : 293532,
            "byteOffset" : 0
        },
        {
            "buffer" : 0,
            "byteLength" : 293532,
            "byteOffset" : 293532
        },
        {
            "buffer" : 0,
            "byteLength" : 293508,
            "byteOffset" : 587064
        },
        {
            "buffer" : 0,
            "byteLength" : 48,
            "byteOffset" : 880572
        },
        {
            "buffer" : 0,
            "byteLength" : 48,
            "byteOffset" : 880620
        },
        {
            "buffer" : 0,
            "byteLength" : 32,
            "byteOffset" : 880668
        },
        {
            "buffer" : 0,
            "byteLength" : 12,
            "byteOffset" : 880700
        },
        {
            "buffer" : 0,
            "byteLength" : 420316,
            "byteOffset" : 880712
        },
        {
            "buffer" : 0,
            "byteLength" : 2304,
            "byteOffset" : 1301028
        },
        {
            "buffer" : 0,
            "byteLength" : 2304,
            "byteOffset" : 1303332
        },
        {
            "buffer" : 0,
            "byteLength" : 1536,
            "byteOffset" : 1305636
        },
        {
            "buffer" : 0,
            "byteLength" : 744,
            "byteOffset" : 1307172
        },
        {
            "buffer" : 0,
            "byteLength" : 6708,
            "byteOffset" : 1307916
        },
        {
            "buffer" : 0,
            "byteLength" : 6708,
            "byteOffset" : 1314624
        },
        {
            "buffer" : 0,
            "byteLength" : 4472,
            "byteOffset" : 1321332
        },
        {
            "buffer" : 0,
            "byteLength" : 5760,
            "byteOffset" : 1325804
        },
        {
            "buffer" : 0,
            "byteLength" : 115452,
            "byteOffset" : 1331564
        },
        {
            "buffer" : 0,
            "byteLength" : 115452,
            "byteOffset" : 1447016
        },
        {
            "buffer" : 0,
            "byteLength" : 76968,
            "byteOffset" : 1562468
        },
        {
            "buffer" : 0,
            "byteLength" : 42948,
            "byteOffset" : 1639436
        }
    ],
    "samplers" : [
        {
            "magFilter" : 9729,
            "minFilter" : 9987
        }
    ],
    "buffers" : [
        {
            "byteLength" : 1682384,
            "uri" : "data:application/octet-stream;base64,"
        }
    ]
}
