{
    "asset" : {
        "generator" : "Khronos glTF Blender I/O v1.7.33",
        "version" : "2.0"
    },
    "scene" : 0,
    "scenes" : [
        {
            "name" : "Scene",
            "nodes" : [
                0,
                1,
                2,
                3,
                4,
                5,
                6,
                7,
                8
            ]
        }
    ],
    "nodes" : [
        {
            "mesh" : 0,
            "name" : "Realistic_White_Female_Low_Poly",
            "rotation" : [
                0.5,
                -0.4999999701976776,
                0.5000000596046448,
                0.4999999403953552
            ],
            "scale" : [
                0.6937378644943237,
                0.6937378644943237,
                0.6937378644943237
            ],
            "translation" : [
                -1.7542847394943237,
                1.7122799158096313,
                -79.3188247680664
            ]
        },
        {
            "mesh" : 1,
            "name" : "Cylinder.004",
            "scale" : [
                9.6563081741333,
                1.3299520015716553,
                9.6563081741333
            ],
            "translation" : [
                -0.9997690916061401,
                0.49828875064849854,
                -79.51641082763672
            ]
        },
        {
            "mesh" : 2,
            "name" : "Cylinder.005",
            "rotation" : [
                -0.28938600420951843,
                0.0777905210852623,
                0.4092583656311035,
                0.8618075251579285
            ],
            "scale" : [
                0.029999999329447746,
                6,
                0.029999999329447746
            ],
            "translation" : [
                -3.965402603149414,
                10.826017379760742,
                -83.81996154785156
            ]
        },
        {
            "mesh" : 3,
            "name" : "Torus.002",
            "rotation" : [
                0.6292183995246887,
                0.5156359076499939,
                -0.12133997678756714,
                0.5687534213066101
            ],
            "scale" : [
                1,
                0.009999999776482582,
                1
            ],
            "translation" : [
                -2.029724597930908,
                9.404542922973633,
                -82.68375396728516
            ]
        },
        {
            "mesh" : 4,
            "name" : "Torus.003",
            "rotation" : [
                0.30280181765556335,
                0.6469706892967224,
                -0.6617389917373657,
                0.2276875376701355
            ],
            "scale" : [
                1.8528363704681396,
                0.01852836273610592,
                1.8528363704681396
            ],
            "translation" : [
                -4.133203029632568,
                21.30389404296875,
                -74.80132293701172
            ]
        },
        {
            "mesh" : 5,
            "name" : "Cylinder.006",
            "rotation" : [
                -0.6244007349014282,
                0.36299198865890503,
                -0.1230064108967781,
                -0.6806100010871887
            ],
            "scale" : [
                0.029999999329447746,
                6,
                0.029999999329447746
            ],
            "translation" : [
                -5.328271389007568,
                21.68946647644043,
                -73.18547821044922
            ]
        },
        {
            "mesh" : 6,
            "name" : "Plane.001",
            "rotation" : [
                -0.5,
                0.4999999701976776,
                -0.5,
                -0.5
            ],
            "scale" : [
                8.04500961303711,
                8.948049545288086,
                6.800000190734863
            ],
            "translation" : [
                3.3100099563598633,
                49.01319885253906,
                -64.0577621459961
            ]
        },
        {
            "mesh" : 7,
            "name" : "Plane.002",
            "rotation" : [
                -0.5,
                0.4999999701976776,
                -0.5,
                -0.5
            ],
            "scale" : [
                8.04500961303711,
                8.948049545288086,
                4.396969795227051
            ],
            "translation" : [
                -5.68549108505249,
                23.8798885345459,
                -61.72650909423828
            ]
        },
        {
            "mesh" : 8,
            "name" : "Plane.003",
            "rotation" : [
                -0.5,
                0.4999999701976776,
                -0.5,
                -0.5
            ],
            "scale" : [
                8.04500961303711,
                8.948049545288086,
                4.396969795227051
            ],
            "translation" : [
                -4.8986921310424805,
                14.926876068115234,
                -92.5032730102539
            ]
        }
    ],
    "materials" : [
        {
            "doubleSided" : true,
            "name" : "default.002",
            "pbrMetallicRoughness" : {
                "baseColorFactor" : [
                    0.24222180247306824,
                    0.24222180247306824,
                    0.24222180247306824,
                    1
                ],
                "metallicFactor" : 0,
                "roughnessFactor" : 0.5989899039268494
            }
        },
        {
            "doubleSided" : true,
            "name" : "Material.020",
            "pbrMetallicRoughness" : {
                "baseColorFactor" : [
                    0.09600522369146347,
                    0.33790233731269836,
                    0.9080811738967896,
                    1
                ],
                "metallicFactor" : 0,
                "roughnessFactor" : 0.5
            }
        },
        {
            "doubleSided" : true,
            "name" : "Material.027",
            "pbrMetallicRoughness" : {
                "baseColorFactor" : [
                    0.800000011920929,
                    0.800000011920929,
                    0.800000011920929,
                    1
                ],
                "metallicFactor" : 0,
                "roughnessFactor" : 0.5
            }
        },
        {
            "doubleSided" : true,
            "name" : "Material.030",
            "pbrMetallicRoughness" : {
                "baseColorFactor" : [
                    0.8000000715255737,
                    0.33036184310913086,
                    0.24785706400871277,
                    1
                ],
                "metallicFactor" : 0
            }
        },
        {
            "doubleSided" : true,
            "name" : "Material.031",
            "pbrMetallicRoughness" : {
                "baseColorFactor" : [
                    0.800000011920929,
                    0.800000011920929,
                    0.800000011920929,
                    1
                ],
                "metallicFactor" : 0,
                "roughnessFactor" : 0.5
            }
        },
        {
            "doubleSided" : true,
            "name" : "Material.028",
            "pbrMetallicRoughness" : {
                "baseColorTexture" : {
                    "index" : 0
                },
                "metallicFactor" : 0
            }
        },
        {
            "doubleSided" : true,
            "name" : "Material.029",
            "pbrMetallicRoughness" : {
                "baseColorTexture" : {
                    "index" : 1
                },
                "metallicFactor" : 0
            }
        },
        {
            "doubleSided" : true,
            "name" : "Material.026",
            "pbrMetallicRoughness" : {
                "baseColorTexture" : {
                    "index" : 2
                },
                "metallicFactor" : 0
            }
        }
    ],
    "meshes" : [
        {
            "name" : "Realistic_White_Female_Low_Poly",
            "primitives" : [
                {
                    "attributes" : {
                        "POSITION" : 0,
                        "NORMAL" : 1
                    },
                    "indices" : 2,
                    "material" : 0
                }
            ]
        },
        {
            "name" : "Cylinder.006",
            "primitives" : [
                {
                    "attributes" : {
                        "POSITION" : 3,
                        "NORMAL" : 4,
                        "TEXCOORD_0" : 5
                    },
                    "indices" : 6,
                    "material" : 1
                }
            ]
        },
        {
            "name" : "Cylinder.008",
            "primitives" : [
                {
                    "attributes" : {
                        "POSITION" : 7,
                        "NORMAL" : 8,
                        "TEXCOORD_0" : 9
                    },
                    "indices" : 10,
                    "material" : 2
                }
            ]
        },
        {
            "name" : "Torus.004",
            "primitives" : [
                {
                    "attributes" : {
                        "POSITION" : 11,
                        "NORMAL" : 12,
                        "TEXCOORD_0" : 13
                    },
                    "indices" : 14,
                    "material" : 3
                }
            ]
        },
        {
            "name" : "Torus.005",
            "primitives" : [
                {
                    "attributes" : {
                        "POSITION" : 15,
                        "NORMAL" : 16,
                        "TEXCOORD_0" : 17
                    },
                    "indices" : 14,
                    "material" : 3
                }
            ]
        },
        {
            "name" : "Cylinder.009",
            "primitives" : [
                {
                    "attributes" : {
                        "POSITION" : 18,
                        "NORMAL" : 19,
                        "TEXCOORD_0" : 20
                    },
                    "indices" : 10,
                    "material" : 4
                }
            ]
        },
        {
            "name" : "Plane.003",
            "primitives" : [
                {
                    "attributes" : {
                        "POSITION" : 21,
                        "NORMAL" : 22,
                        "TEXCOORD_0" : 23
                    },
                    "indices" : 24,
                    "material" : 5
                }
            ]
        },
        {
            "name" : "Plane.004",
            "primitives" : [
                {
                    "attributes" : {
                        "POSITION" : 25,
                        "NORMAL" : 26,
                        "TEXCOORD_0" : 27
                    },
                    "indices" : 24,
                    "material" : 6
                }
            ]
        },
        {
            "name" : "Plane.005",
            "primitives" : [
                {
                    "attributes" : {
                        "POSITION" : 28,
                        "NORMAL" : 29,
                        "TEXCOORD_0" : 30
                    },
                    "indices" : 24,
                    "material" : 7
                }
            ]
        }
    ],
    "textures" : [
        {
            "sampler" : 0,
            "source" : 0
        },
        {
            "sampler" : 0,
            "source" : 1
        },
        {
            "sampler" : 0,
            "source" : 2
        }
    ],
    "images" : [
        {
            "bufferView" : 25,
            "mimeType" : "image/png",
            "name" : "Group 160"
        },
        {
            "bufferView" : 29,
            "mimeType" : "image/png",
            "name" : "Group 161"
        },
        {
            "bufferView" : 33,
            "mimeType" : "image/png",
            "name" : "Group 162"
        }
    ],
    "accessors" : [
        {
            "bufferView" : 0,
            "componentType" : 5126,
            "count" : 4986,
            "max" : [
                15.853227615356445,
                6.0651068687438965,
                -0.0020349998958408833
            ],
            "min" : [
                -15.850027084350586,
                -5.399774074554443,
                -68.01579284667969
            ],
            "type" : "VEC3"
        },
        {
            "bufferView" : 1,
            "componentType" : 5126,
            "count" : 4986,
            "type" : "VEC3"
        },
        {
            "bufferView" : 2,
            "componentType" : 5123,
            "count" : 29904,
            "type" : "SCALAR"
        },
        {
            "bufferView" : 3,
            "componentType" : 5126,
            "count" : 2028,
            "max" : [
                0.9999567866325378,
                1,
                1
            ],
            "min" : [
                -0.9999567866325378,
                -1,
                -1
            ],
            "type" : "VEC3"
        },
        {
            "bufferView" : 4,
            "componentType" : 5126,
            "count" : 2028,
            "type" : "VEC3"
        },
        {
            "bufferView" : 5,
            "componentType" : 5126,
            "count" : 2028,
            "type" : "VEC2"
        },
        {
            "bufferView" : 6,
            "componentType" : 5123,
            "count" : 4044,
            "type" : "SCALAR"
        },
        {
            "bufferView" : 7,
            "componentType" : 5126,
            "count" : 192,
            "max" : [
                1,
                1,
                1
            ],
            "min" : [
                -1,
                -1,
                -1
            ],
            "type" : "VEC3"
        },
        {
            "bufferView" : 8,
            "componentType" : 5126,
            "count" : 192,
            "type" : "VEC3"
        },
        {
            "bufferView" : 9,
            "componentType" : 5126,
            "count" : 192,
            "type" : "VEC2"
        },
        {
            "bufferView" : 10,
            "componentType" : 5123,
            "count" : 372,
            "type" : "SCALAR"
        },
        {
            "bufferView" : 11,
            "componentType" : 5126,
            "count" : 2304,
            "max" : [
                1.25,
                0.25,
                1.25
            ],
            "min" : [
                -1.25,
                -0.25,
                -1.25
            ],
            "type" : "VEC3"
        },
        {
            "bufferView" : 12,
            "componentType" : 5126,
            "count" : 2304,
            "type" : "VEC3"
        },
        {
            "bufferView" : 13,
            "componentType" : 5126,
            "count" : 2304,
            "type" : "VEC2"
        },
        {
            "bufferView" : 14,
            "componentType" : 5123,
            "count" : 3456,
            "type" : "SCALAR"
        },
        {
            "bufferView" : 15,
            "componentType" : 5126,
            "count" : 2304,
            "max" : [
                1.25,
                0.25,
                1.25
            ],
            "min" : [
                -1.25,
                -0.25,
                -1.25
            ],
            "type" : "VEC3"
        },
        {
            "bufferView" : 16,
            "componentType" : 5126,
            "count" : 2304,
            "type" : "VEC3"
        },
        {
            "bufferView" : 17,
            "componentType" : 5126,
            "count" : 2304,
            "type" : "VEC2"
        },
        {
            "bufferView" : 18,
            "componentType" : 5126,
            "count" : 192,
            "max" : [
                1,
                1,
                1
            ],
            "min" : [
                -1,
                -1,
                -1
            ],
            "type" : "VEC3"
        },
        {
            "bufferView" : 19,
            "componentType" : 5126,
            "count" : 192,
            "type" : "VEC3"
        },
        {
            "bufferView" : 20,
            "componentType" : 5126,
            "count" : 192,
            "type" : "VEC2"
        },
        {
            "bufferView" : 21,
            "componentType" : 5126,
            "count" : 52,
            "max" : [
                1,
                0.38044366240501404,
                1
            ],
            "min" : [
                -1,
                0.38044366240501404,
                -1
            ],
            "type" : "VEC3"
        },
        {
            "bufferView" : 22,
            "componentType" : 5126,
            "count" : 52,
            "type" : "VEC3"
        },
        {
            "bufferView" : 23,
            "componentType" : 5126,
            "count" : 52,
            "type" : "VEC2"
        },
        {
            "bufferView" : 24,
            "componentType" : 5123,
            "count" : 150,
            "type" : "SCALAR"
        },
        {
            "bufferView" : 26,
            "componentType" : 5126,
            "count" : 52,
            "max" : [
                1,
                0.38044366240501404,
                1
            ],
            "min" : [
                -1,
                0.38044366240501404,
                -1
            ],
            "type" : "VEC3"
        },
        {
            "bufferView" : 27,
            "componentType" : 5126,
            "count" : 52,
            "type" : "VEC3"
        },
        {
            "bufferView" : 28,
            "componentType" : 5126,
            "count" : 52,
            "type" : "VEC2"
        },
        {
            "bufferView" : 30,
            "componentType" : 5126,
            "count" : 52,
            "max" : [
                1,
                0.38044366240501404,
                1
            ],
            "min" : [
                -1,
                0.38044366240501404,
                -1
            ],
            "type" : "VEC3"
        },
        {
            "bufferView" : 31,
            "componentType" : 5126,
            "count" : 52,
            "type" : "VEC3"
        },
        {
            "bufferView" : 32,
            "componentType" : 5126,
            "count" : 52,
            "type" : "VEC2"
        }
    ],
    "bufferViews" : [
        {
            "buffer" : 0,
            "byteLength" : 59832,
            "byteOffset" : 0
        },
        {
            "buffer" : 0,
            "byteLength" : 59832,
            "byteOffset" : 59832
        },
        {
            "buffer" : 0,
            "byteLength" : 59808,
            "byteOffset" : 119664
        },
        {
            "buffer" : 0,
            "byteLength" : 24336,
            "byteOffset" : 179472
        },
        {
            "buffer" : 0,
            "byteLength" : 24336,
            "byteOffset" : 203808
        },
        {
            "buffer" : 0,
            "byteLength" : 16224,
            "byteOffset" : 228144
        },
        {
            "buffer" : 0,
            "byteLength" : 8088,
            "byteOffset" : 244368
        },
        {
            "buffer" : 0,
            "byteLength" : 2304,
            "byteOffset" : 252456
        },
        {
            "buffer" : 0,
            "byteLength" : 2304,
            "byteOffset" : 254760
        },
        {
            "buffer" : 0,
            "byteLength" : 1536,
            "byteOffset" : 257064
        },
        {
            "buffer" : 0,
            "byteLength" : 744,
            "byteOffset" : 258600
        },
        {
            "buffer" : 0,
            "byteLength" : 27648,
            "byteOffset" : 259344
        },
        {
            "buffer" : 0,
            "byteLength" : 27648,
            "byteOffset" : 286992
        },
        {
            "buffer" : 0,
            "byteLength" : 18432,
            "byteOffset" : 314640
        },
        {
            "buffer" : 0,
            "byteLength" : 6912,
            "byteOffset" : 333072
        },
        {
            "buffer" : 0,
            "byteLength" : 27648,
            "byteOffset" : 339984
        },
        {
            "buffer" : 0,
            "byteLength" : 27648,
            "byteOffset" : 367632
        },
        {
            "buffer" : 0,
            "byteLength" : 18432,
            "byteOffset" : 395280
        },
        {
            "buffer" : 0,
            "byteLength" : 2304,
            "byteOffset" : 413712
        },
        {
            "buffer" : 0,
            "byteLength" : 2304,
            "byteOffset" : 416016
        },
        {
            "buffer" : 0,
            "byteLength" : 1536,
            "byteOffset" : 418320
        },
        {
            "buffer" : 0,
            "byteLength" : 624,
            "byteOffset" : 419856
        },
        {
            "buffer" : 0,
            "byteLength" : 624,
            "byteOffset" : 420480
        },
        {
            "buffer" : 0,
            "byteLength" : 416,
            "byteOffset" : 421104
        },
        {
            "buffer" : 0,
            "byteLength" : 300,
            "byteOffset" : 421520
        },
        {
            "buffer" : 0,
            "byteLength" : 27590,
            "byteOffset" : 421820
        },
        {
            "buffer" : 0,
            "byteLength" : 624,
            "byteOffset" : 449412
        },
        {
            "buffer" : 0,
            "byteLength" : 624,
            "byteOffset" : 450036
        },
        {
            "buffer" : 0,
            "byteLength" : 416,
            "byteOffset" : 450660
        },
        {
            "buffer" : 0,
            "byteLength" : 61354,
            "byteOffset" : 451076
        },
        {
            "buffer" : 0,
            "byteLength" : 624,
            "byteOffset" : 512432
        },
        {
            "buffer" : 0,
            "byteLength" : 624,
            "byteOffset" : 513056
        },
        {
            "buffer" : 0,
            "byteLength" : 416,
            "byteOffset" : 513680
        },
        {
            "buffer" : 0,
            "byteLength" : 61662,
            "byteOffset" : 514096
        }
    ],
    "samplers" : [
        {
            "magFilter" : 9729,
            "minFilter" : 9987
        }
    ],
    "buffers" : [
        {
            "byteLength" : 575760,
            "uri" : "data:application/octet-stream;base64,"
        }
    ]
}
