{
    "asset" : {
        "generator" : "Khronos glTF Blender I/O v1.7.33",
        "version" : "2.0"
    },
    "scene" : 0,
    "scenes" : [
        {
            "name" : "Scene",
            "nodes" : [
                0,
                1,
                2,
                3,
                4,
                5,
                6,
                7
            ]
        }
    ],
    "nodes" : [
        {
            "mesh" : 0,
            "name" : "Cylinder",
            "rotation" : [
                -0.47138622403144836,
                0,
                0,
                0.8819268941879272
            ],
            "scale" : [
                0.029999999329447746,
                4,
                0.029999999329447746
            ],
            "translation" : [
                -0.07544071227312088,
                35.538551330566406,
                -9.836199760437012
            ]
        },
        {
            "mesh" : 1,
            "name" : "Cylinder.001",
            "scale" : [
                9.6563081741333,
                1.3299520015716553,
                9.6563081741333
            ],
            "translation" : [
                -0.9997690916061401,
                0.49828875064849854,
                3.5620908737182617
            ]
        },
        {
            "mesh" : 2,
            "name" : "FinalBaseMesh.003",
            "rotation" : [
                -0.5000000596046448,
                0.4999999701976776,
                -0.5000000596046448,
                -0.4999999701976776
            ],
            "scale" : [
                2.331998348236084,
                2.331998348236084,
                2.331998348236084
            ],
            "translation" : [
                -1.7893762588500977,
                1.7855623960494995,
                3.5887556076049805
            ]
        },
        {
            "mesh" : 3,
            "name" : "Plane.001",
            "rotation" : [
                -0.5,
                0.4999999701976776,
                -0.5,
                -0.5
            ],
            "scale" : [
                8.045005798339844,
                8.948049545288086,
                4.396969795227051
            ],
            "translation" : [
                3.3100101947784424,
                35.79280090332031,
                -20.551212310791016
            ]
        },
        {
            "mesh" : 4,
            "name" : "Torus",
            "rotation" : [
                -0.48738768696784973,
                -0.14627447724342346,
                0.15250682830810547,
                0.8472300171852112
            ],
            "scale" : [
                1,
                0.009999999776482582,
                1
            ],
            "translation" : [
                -0.21457064151763916,
                33.61711502075195,
                -7.02764368057251
            ]
        },
        {
            "mesh" : 5,
            "name" : "Plane.004",
            "rotation" : [
                -0.5,
                0.4999999701976776,
                -0.5,
                -0.5
            ],
            "scale" : [
                8.045005798339844,
                8.948049545288086,
                6.800000190734863
            ],
            "translation" : [
                3.3100101947784424,
                49.01316833496094,
                -20.551212310791016
            ]
        },
        {
            "mesh" : 6,
            "name" : "Plane.002",
            "rotation" : [
                -0.5,
                0.4999999701976776,
                -0.5,
                -0.5
            ],
            "scale" : [
                8.045005798339844,
                8.948049545288086,
                4.396969795227051
            ],
            "translation" : [
                3.3100101947784424,
                35.79280090332031,
                -20.551212310791016
            ]
        },
        {
            "mesh" : 7,
            "name" : "Plane.003",
            "rotation" : [
                -0.5,
                0.4999999701976776,
                -0.5,
                -0.5
            ],
            "scale" : [
                8.045005798339844,
                8.948049545288086,
                6.800000190734863
            ],
            "translation" : [
                3.3100101947784424,
                49.01316833496094,
                -20.551212310791016
            ]
        }
    ],
    "materials" : [
        {
            "doubleSided" : true,
            "name" : "Material.007",
            "pbrMetallicRoughness" : {
                "baseColorFactor" : [
                    0.800000011920929,
                    0.800000011920929,
                    0.800000011920929,
                    1
                ],
                "metallicFactor" : 0,
                "roughnessFactor" : 0.5
            }
        },
        {
            "doubleSided" : true,
            "name" : "Material.009",
            "pbrMetallicRoughness" : {
                "baseColorFactor" : [
                    0.09600522369146347,
                    0.33790233731269836,
                    0.9080811738967896,
                    1
                ],
                "metallicFactor" : 0,
                "roughnessFactor" : 0.5
            }
        },
        {
            "doubleSided" : true,
            "name" : "default.003",
            "pbrMetallicRoughness" : {
                "baseColorFactor" : [
                    0.7395464181900024,
                    0.7395464181900024,
                    0.7395464181900024,
                    1
                ],
                "metallicFactor" : 0,
                "roughnessFactor" : 0.5989899039268494
            }
        },
        {
            "doubleSided" : true,
            "name" : "Material.004",
            "pbrMetallicRoughness" : {
                "baseColorTexture" : {
                    "index" : 0
                },
                "metallicFactor" : 0
            }
        },
        {
            "doubleSided" : true,
            "name" : "Material.030",
            "pbrMetallicRoughness" : {
                "baseColorFactor" : [
                    0.8000000715255737,
                    0.33036184310913086,
                    0.24785706400871277,
                    1
                ],
                "metallicFactor" : 0
            }
        },
        {
            "doubleSided" : true,
            "name" : "Material.008",
            "pbrMetallicRoughness" : {
                "baseColorTexture" : {
                    "index" : 1
                },
                "metallicFactor" : 0
            }
        }
    ],
    "meshes" : [
        {
            "name" : "Cylinder",
            "primitives" : [
                {
                    "attributes" : {
                        "POSITION" : 0,
                        "NORMAL" : 1,
                        "TEXCOORD_0" : 2
                    },
                    "indices" : 3,
                    "material" : 0
                }
            ]
        },
        {
            "name" : "Cylinder.001",
            "primitives" : [
                {
                    "attributes" : {
                        "POSITION" : 4,
                        "NORMAL" : 5,
                        "TEXCOORD_0" : 6
                    },
                    "indices" : 7,
                    "material" : 1
                }
            ]
        },
        {
            "name" : "FinalBaseMesh.003",
            "primitives" : [
                {
                    "attributes" : {
                        "POSITION" : 8,
                        "NORMAL" : 9
                    },
                    "indices" : 10,
                    "material" : 2
                }
            ]
        },
        {
            "name" : "Plane.004",
            "primitives" : [
                {
                    "attributes" : {
                        "POSITION" : 11,
                        "NORMAL" : 12,
                        "TEXCOORD_0" : 13
                    },
                    "indices" : 14,
                    "material" : 3
                }
            ]
        },
        {
            "name" : "Torus",
            "primitives" : [
                {
                    "attributes" : {
                        "POSITION" : 15,
                        "NORMAL" : 16,
                        "TEXCOORD_0" : 17
                    },
                    "indices" : 18,
                    "material" : 4
                }
            ]
        },
        {
            "name" : "Plane.007",
            "primitives" : [
                {
                    "attributes" : {
                        "POSITION" : 19,
                        "NORMAL" : 20,
                        "TEXCOORD_0" : 21
                    },
                    "indices" : 22,
                    "material" : 5
                }
            ]
        },
        {
            "name" : "Plane.012",
            "primitives" : [
                {
                    "attributes" : {
                        "POSITION" : 23,
                        "NORMAL" : 24,
                        "TEXCOORD_0" : 25
                    },
                    "indices" : 26
                }
            ]
        },
        {
            "name" : "Plane.013",
            "primitives" : [
                {
                    "attributes" : {
                        "POSITION" : 27,
                        "NORMAL" : 28,
                        "TEXCOORD_0" : 29
                    },
                    "indices" : 26
                }
            ]
        }
    ],
    "textures" : [
        {
            "sampler" : 0,
            "source" : 0
        },
        {
            "sampler" : 0,
            "source" : 1
        }
    ],
    "images" : [
        {
            "bufferView" : 15,
            "mimeType" : "image/png",
            "name" : "Group 158"
        },
        {
            "bufferView" : 24,
            "mimeType" : "image/png",
            "name" : "Group 159"
        }
    ],
    "accessors" : [
        {
            "bufferView" : 0,
            "componentType" : 5126,
            "count" : 192,
            "max" : [
                1,
                1,
                1
            ],
            "min" : [
                -1,
                -1,
                -1
            ],
            "type" : "VEC3"
        },
        {
            "bufferView" : 1,
            "componentType" : 5126,
            "count" : 192,
            "type" : "VEC3"
        },
        {
            "bufferView" : 2,
            "componentType" : 5126,
            "count" : 192,
            "type" : "VEC2"
        },
        {
            "bufferView" : 3,
            "componentType" : 5123,
            "count" : 372,
            "type" : "SCALAR"
        },
        {
            "bufferView" : 4,
            "componentType" : 5126,
            "count" : 2028,
            "max" : [
                0.9999567866325378,
                1,
                1
            ],
            "min" : [
                -0.9999567866325378,
                -1,
                -1
            ],
            "type" : "VEC3"
        },
        {
            "bufferView" : 5,
            "componentType" : 5126,
            "count" : 2028,
            "type" : "VEC3"
        },
        {
            "bufferView" : 6,
            "componentType" : 5126,
            "count" : 2028,
            "type" : "VEC2"
        },
        {
            "bufferView" : 7,
            "componentType" : 5123,
            "count" : 4044,
            "type" : "SCALAR"
        },
        {
            "bufferView" : 8,
            "componentType" : 5126,
            "count" : 24461,
            "max" : [
                5.84250020980835,
                1.9170000553131104,
                0.05660000070929527
            ],
            "min" : [
                -5.84250020980835,
                -1.8530999422073364,
                -20.684099197387695
            ],
            "type" : "VEC3"
        },
        {
            "bufferView" : 9,
            "componentType" : 5126,
            "count" : 24461,
            "type" : "VEC3"
        },
        {
            "bufferView" : 10,
            "componentType" : 5123,
            "count" : 146754,
            "type" : "SCALAR"
        },
        {
            "bufferView" : 11,
            "componentType" : 5126,
            "count" : 260,
            "max" : [
                1,
                0.39537203311920166,
                1
            ],
            "min" : [
                -1,
                0.3719032406806946,
                -1
            ],
            "type" : "VEC3"
        },
        {
            "bufferView" : 12,
            "componentType" : 5126,
            "count" : 260,
            "type" : "VEC3"
        },
        {
            "bufferView" : 13,
            "componentType" : 5126,
            "count" : 260,
            "type" : "VEC2"
        },
        {
            "bufferView" : 14,
            "componentType" : 5123,
            "count" : 456,
            "type" : "SCALAR"
        },
        {
            "bufferView" : 16,
            "componentType" : 5126,
            "count" : 2304,
            "max" : [
                1.25,
                0.25,
                1.25
            ],
            "min" : [
                -1.25,
                -0.25,
                -1.25
            ],
            "type" : "VEC3"
        },
        {
            "bufferView" : 17,
            "componentType" : 5126,
            "count" : 2304,
            "type" : "VEC3"
        },
        {
            "bufferView" : 18,
            "componentType" : 5126,
            "count" : 2304,
            "type" : "VEC2"
        },
        {
            "bufferView" : 19,
            "componentType" : 5123,
            "count" : 3456,
            "type" : "SCALAR"
        },
        {
            "bufferView" : 20,
            "componentType" : 5126,
            "count" : 260,
            "max" : [
                1,
                0.39537203311920166,
                1
            ],
            "min" : [
                -1,
                0.3719032406806946,
                -1
            ],
            "type" : "VEC3"
        },
        {
            "bufferView" : 21,
            "componentType" : 5126,
            "count" : 260,
            "type" : "VEC3"
        },
        {
            "bufferView" : 22,
            "componentType" : 5126,
            "count" : 260,
            "type" : "VEC2"
        },
        {
            "bufferView" : 23,
            "componentType" : 5123,
            "count" : 456,
            "type" : "SCALAR"
        },
        {
            "bufferView" : 25,
            "componentType" : 5126,
            "count" : 56,
            "max" : [
                1,
                0.37302079796791077,
                1
            ],
            "min" : [
                -1,
                0.3719032406806946,
                -1
            ],
            "type" : "VEC3"
        },
        {
            "bufferView" : 26,
            "componentType" : 5126,
            "count" : 56,
            "type" : "VEC3"
        },
        {
            "bufferView" : 27,
            "componentType" : 5126,
            "count" : 56,
            "type" : "VEC2"
        },
        {
            "bufferView" : 28,
            "componentType" : 5123,
            "count" : 144,
            "type" : "SCALAR"
        },
        {
            "bufferView" : 29,
            "componentType" : 5126,
            "count" : 56,
            "max" : [
                1,
                0.37302079796791077,
                1
            ],
            "min" : [
                -1,
                0.3719032406806946,
                -1
            ],
            "type" : "VEC3"
        },
        {
            "bufferView" : 30,
            "componentType" : 5126,
            "count" : 56,
            "type" : "VEC3"
        },
        {
            "bufferView" : 31,
            "componentType" : 5126,
            "count" : 56,
            "type" : "VEC2"
        }
    ],
    "bufferViews" : [
        {
            "buffer" : 0,
            "byteLength" : 2304,
            "byteOffset" : 0
        },
        {
            "buffer" : 0,
            "byteLength" : 2304,
            "byteOffset" : 2304
        },
        {
            "buffer" : 0,
            "byteLength" : 1536,
            "byteOffset" : 4608
        },
        {
            "buffer" : 0,
            "byteLength" : 744,
            "byteOffset" : 6144
        },
        {
            "buffer" : 0,
            "byteLength" : 24336,
            "byteOffset" : 6888
        },
        {
            "buffer" : 0,
            "byteLength" : 24336,
            "byteOffset" : 31224
        },
        {
            "buffer" : 0,
            "byteLength" : 16224,
            "byteOffset" : 55560
        },
        {
            "buffer" : 0,
            "byteLength" : 8088,
            "byteOffset" : 71784
        },
        {
            "buffer" : 0,
            "byteLength" : 293532,
            "byteOffset" : 79872
        },
        {
            "buffer" : 0,
            "byteLength" : 293532,
            "byteOffset" : 373404
        },
        {
            "buffer" : 0,
            "byteLength" : 293508,
            "byteOffset" : 666936
        },
        {
            "buffer" : 0,
            "byteLength" : 3120,
            "byteOffset" : 960444
        },
        {
            "buffer" : 0,
            "byteLength" : 3120,
            "byteOffset" : 963564
        },
        {
            "buffer" : 0,
            "byteLength" : 2080,
            "byteOffset" : 966684
        },
        {
            "buffer" : 0,
            "byteLength" : 912,
            "byteOffset" : 968764
        },
        {
            "buffer" : 0,
            "byteLength" : 66581,
            "byteOffset" : 969676
        },
        {
            "buffer" : 0,
            "byteLength" : 27648,
            "byteOffset" : 1036260
        },
        {
            "buffer" : 0,
            "byteLength" : 27648,
            "byteOffset" : 1063908
        },
        {
            "buffer" : 0,
            "byteLength" : 18432,
            "byteOffset" : 1091556
        },
        {
            "buffer" : 0,
            "byteLength" : 6912,
            "byteOffset" : 1109988
        },
        {
            "buffer" : 0,
            "byteLength" : 3120,
            "byteOffset" : 1116900
        },
        {
            "buffer" : 0,
            "byteLength" : 3120,
            "byteOffset" : 1120020
        },
        {
            "buffer" : 0,
            "byteLength" : 2080,
            "byteOffset" : 1123140
        },
        {
            "buffer" : 0,
            "byteLength" : 912,
            "byteOffset" : 1125220
        },
        {
            "buffer" : 0,
            "byteLength" : 27177,
            "byteOffset" : 1126132
        },
        {
            "buffer" : 0,
            "byteLength" : 672,
            "byteOffset" : 1153312
        },
        {
            "buffer" : 0,
            "byteLength" : 672,
            "byteOffset" : 1153984
        },
        {
            "buffer" : 0,
            "byteLength" : 448,
            "byteOffset" : 1154656
        },
        {
            "buffer" : 0,
            "byteLength" : 288,
            "byteOffset" : 1155104
        },
        {
            "buffer" : 0,
            "byteLength" : 672,
            "byteOffset" : 1155392
        },
        {
            "buffer" : 0,
            "byteLength" : 672,
            "byteOffset" : 1156064
        },
        {
            "buffer" : 0,
            "byteLength" : 448,
            "byteOffset" : 1156736
        }
    ],
    "samplers" : [
        {
            "magFilter" : 9729,
            "minFilter" : 9987
        }
    ],
    "buffers" : [
        {
            "byteLength" : 1157184,
            "uri" : "data:application/octet-stream;base64,"
        }
    ]
}
